<svg width="150" height="25" viewBox="0 0 150 25" fill="none" xmlns="http://www.w3.org/2000/svg">
<g clip-path="url(#clip0_3_2)">
<path d="M1.98216 19.6237V8.73656H0V5.64516H1.98216V4.7043C1.98216 3.28853 2.40756 2.15054 3.25835 1.29032C4.10914 0.430107 5.24957 0 6.67962 0H8.20019V3.0914H7.24983C6.18182 3.0914 5.64781 3.64695 5.64781 4.75806V5.64516H8.52602V8.73656H5.64781V19.6237H1.98216Z" fill="#212529"/>
<path d="M11.5731 4.48925C10.9576 4.48925 10.4327 4.28315 9.99822 3.87097C9.58187 3.44086 9.3737 2.93011 9.3737 2.33871C9.3737 1.76523 9.58187 1.2724 9.99822 0.860215C10.4327 0.430107 10.9576 0.215053 11.5731 0.215053C12.2067 0.215053 12.7316 0.430107 13.148 0.860215C13.5643 1.2724 13.7725 1.76523 13.7725 2.33871C13.7725 2.94803 13.5643 3.45878 13.148 3.87097C12.7316 4.28315 12.2067 4.48925 11.5731 4.48925ZM9.75384 19.6237V5.64516H13.4195V19.6237H9.75384Z" fill="#212529"/>
<path d="M15.5875 19.6237V0H19.2531V19.6237H15.5875Z" fill="#212529"/>
<path d="M28.1822 19.9731C26.734 19.9731 25.4579 19.6416 24.3536 18.9785C23.2494 18.3154 22.3896 17.4373 21.7741 16.3441C21.1767 15.233 20.8781 14.0054 20.8781 12.6613C20.8781 11.3172 21.1948 10.0896 21.8284 8.97849C22.462 7.84946 23.3218 6.9534 24.4079 6.29032C25.5122 5.62724 26.7702 5.2957 28.1822 5.2957C29.5941 5.2957 30.8341 5.62724 31.9021 6.29032C32.9883 6.9534 33.83 7.84946 34.4274 8.97849C35.0428 10.0896 35.3506 11.3172 35.3506 12.6613C35.3506 12.8584 35.3415 13.0645 35.3234 13.2796C35.3053 13.4946 35.2782 13.7186 35.242 13.9516H24.6795C24.8786 14.776 25.2768 15.448 25.8742 15.9677C26.4897 16.4875 27.259 16.7473 28.1822 16.7473C28.9787 16.7473 29.6666 16.5681 30.2458 16.2097C30.8432 15.8513 31.3048 15.4032 31.6306 14.8656L34.4817 16.9892C33.9205 17.8674 33.0788 18.5842 31.9565 19.1398C30.8341 19.6953 29.576 19.9731 28.1822 19.9731ZM28.1279 8.41398C27.259 8.41398 26.5168 8.67383 25.9013 9.19355C25.2859 9.71326 24.8786 10.3943 24.6795 11.2366H31.6578C31.4586 10.4659 31.0423 9.80287 30.4087 9.24731C29.7933 8.69176 29.033 8.41398 28.1279 8.41398Z" fill="#212529"/>
<path d="M44.6441 19.9731C43.1054 19.9731 41.7568 19.6685 40.5983 19.0591C39.4398 18.4319 38.5437 17.5717 37.9102 16.4785C37.2766 15.3674 36.9598 14.095 36.9598 12.6613V0.806451H40.7612V12.2581C40.7612 13.5842 41.078 14.6326 41.7116 15.4032C42.3632 16.1559 43.3407 16.5323 44.6441 16.5323C45.9474 16.5323 46.9159 16.1559 47.5494 15.4032C48.2011 14.6326 48.527 13.5842 48.527 12.2581V0.806451H52.3284V12.6613C52.3284 14.095 52.0116 15.3674 51.378 16.4785C50.7444 17.5717 49.8484 18.4319 48.6899 19.0591C47.5494 19.6685 46.2008 19.9731 44.6441 19.9731Z" fill="#212529"/>
<path d="M54.5138 25V5.64516H58.1251V7.90323C58.5052 7.13262 59.0392 6.51434 59.7271 6.04839C60.4331 5.58244 61.4015 5.34946 62.6325 5.34946C63.61 5.34946 64.5151 5.54659 65.3478 5.94086C66.1986 6.3172 66.9407 6.84588 67.5743 7.52688C68.2079 8.18996 68.7057 8.96953 69.0677 9.86559C69.4298 10.7437 69.6108 11.6846 69.6108 12.6882C69.6108 14.0323 69.294 15.2599 68.6604 16.371C68.045 17.4642 67.2123 18.3423 66.1624 19.0054C65.1124 19.6505 63.9358 19.9731 62.6325 19.9731C61.4196 19.9731 60.4693 19.7581 59.7814 19.328C59.0935 18.8799 58.5595 18.2885 58.1794 17.5538V25H54.5138ZM62.0351 16.6935C62.8135 16.6935 63.4923 16.5054 64.0716 16.129C64.6689 15.7527 65.1305 15.2599 65.4564 14.6505C65.7822 14.0233 65.9451 13.3602 65.9451 12.6613C65.9451 11.9265 65.7822 11.2545 65.4564 10.6452C65.1305 10.0358 64.6689 9.55197 64.0716 9.19355C63.4923 8.8172 62.8135 8.62903 62.0351 8.62903C61.2386 8.62903 60.5417 8.8172 59.9443 9.19355C59.347 9.56989 58.8854 10.0627 58.5595 10.672C58.2337 11.2814 58.0708 11.9534 58.0708 12.6882C58.0708 13.405 58.2337 14.0681 58.5595 14.6774C58.8854 15.2867 59.347 15.7796 59.9443 16.1559C60.5417 16.5143 61.2386 16.6935 62.0351 16.6935Z" fill="#212529"/>
<path d="M71.2457 19.6237V0H74.9113V19.6237H71.2457Z" fill="#212529"/>
<path d="M84.0576 19.9731C82.6095 19.9731 81.3152 19.6416 80.1747 18.9785C79.0343 18.3154 78.1383 17.4373 77.4866 16.3441C76.853 15.233 76.5363 14.0054 76.5363 12.6613C76.5363 11.3172 76.853 10.0896 77.4866 8.97849C78.1383 7.86738 79.0343 6.98029 80.1747 6.3172C81.3152 5.65412 82.6095 5.32258 84.0576 5.32258C85.5239 5.32258 86.8182 5.65412 87.9405 6.3172C89.0809 6.98029 89.9679 7.86738 90.6015 8.97849C91.2531 10.0896 91.579 11.3172 91.579 12.6613C91.579 14.0054 91.2531 15.233 90.6015 16.3441C89.9679 17.4373 89.0809 18.3154 87.9405 18.9785C86.8182 19.6416 85.5239 19.9731 84.0576 19.9731ZM84.0576 16.6667C84.836 16.6667 85.5148 16.4875 86.0941 16.129C86.6734 15.7527 87.1169 15.2599 87.4246 14.6505C87.7504 14.0412 87.9133 13.3781 87.9133 12.6613C87.9133 11.9265 87.7504 11.2545 87.4246 10.6452C87.1169 10.0358 86.6734 9.55197 86.0941 9.19355C85.5148 8.8172 84.836 8.62903 84.0576 8.62903C83.2792 8.62903 82.6004 8.8172 82.0212 9.19355C81.4419 9.55197 80.9893 10.0358 80.6635 10.6452C80.3558 11.2545 80.2019 11.9265 80.2019 12.6613C80.2019 13.3781 80.3558 14.0412 80.6635 14.6505C80.9893 15.2599 81.4419 15.7527 82.0212 16.129C82.6004 16.4875 83.2792 16.6667 84.0576 16.6667Z" fill="#212529"/>
<path d="M99.504 19.9731C98.2188 19.9731 97.0422 19.6505 95.9741 19.0054C94.9242 18.3423 94.0825 17.4642 93.4489 16.371C92.8335 15.2599 92.5257 14.0323 92.5257 12.6882C92.5257 11.6846 92.7067 10.7437 93.0688 9.86559C93.4308 8.96953 93.9286 8.18996 94.5622 7.52688C95.1958 6.84588 95.9289 6.3172 96.7616 5.94086C97.6124 5.54659 98.5265 5.34946 99.504 5.34946C100.735 5.34946 101.694 5.58244 102.382 6.04839C103.07 6.49642 103.604 7.09677 103.984 7.84946V5.64516H107.623V19.6237H104.066V17.3387C103.686 18.1272 103.143 18.7634 102.437 19.2473C101.749 19.7312 100.771 19.9731 99.504 19.9731ZM100.101 16.6935C100.916 16.6935 101.613 16.5143 102.192 16.1559C102.79 15.7796 103.251 15.2867 103.577 14.6774C103.903 14.0681 104.066 13.405 104.066 12.6882C104.066 11.9534 103.903 11.2814 103.577 10.672C103.251 10.0627 102.79 9.56989 102.192 9.19355C101.613 8.8172 100.916 8.62903 100.101 8.62903C99.323 8.62903 98.6351 8.8172 98.0378 9.19355C97.4585 9.55197 97.006 10.0358 96.6801 10.6452C96.3543 11.2545 96.1914 11.9265 96.1914 12.6613C96.1914 13.3602 96.3543 14.0233 96.6801 14.6505C97.006 15.2599 97.4585 15.7527 98.0378 16.129C98.6351 16.5054 99.323 16.6935 100.101 16.6935Z" fill="#212529"/>
<path d="M116.236 19.9731C114.951 19.9731 113.774 19.6505 112.706 19.0054C111.656 18.3423 110.814 17.4642 110.181 16.371C109.565 15.2599 109.258 14.0323 109.258 12.6882C109.258 11.6846 109.439 10.7437 109.801 9.86559C110.163 8.96953 110.661 8.18996 111.294 7.52688C111.928 6.84588 112.661 6.3172 113.494 5.94086C114.344 5.54659 115.258 5.34946 116.236 5.34946C117.449 5.34946 118.399 5.57348 119.087 6.0215C119.775 6.46953 120.309 7.06093 120.689 7.7957V0H124.355V19.6237H120.798V17.3387C120.418 18.1272 119.874 18.7634 119.168 19.2473C118.481 19.7312 117.503 19.9731 116.236 19.9731ZM116.833 16.6935C117.648 16.6935 118.345 16.5143 118.924 16.1559C119.521 15.7796 119.983 15.2867 120.309 14.6774C120.635 14.0681 120.798 13.405 120.798 12.6882C120.798 11.9534 120.635 11.2814 120.309 10.672C119.983 10.0627 119.521 9.56989 118.924 9.19355C118.345 8.8172 117.648 8.62903 116.833 8.62903C116.055 8.62903 115.367 8.8172 114.77 9.19355C114.19 9.55197 113.738 10.0358 113.412 10.6452C113.086 11.2545 112.923 11.9265 112.923 12.6613C112.923 13.3602 113.086 14.0233 113.412 14.6505C113.738 15.2599 114.19 15.7527 114.77 16.129C115.367 16.5054 116.055 16.6935 116.833 16.6935Z" fill="#212529"/>
<path d="M133.294 19.9731C131.846 19.9731 130.569 19.6416 129.465 18.9785C128.361 18.3154 127.501 17.4373 126.886 16.3441C126.288 15.233 125.99 14.0054 125.99 12.6613C125.99 11.3172 126.306 10.0896 126.94 8.97849C127.574 7.84946 128.433 6.9534 129.519 6.29032C130.624 5.62724 131.882 5.2957 133.294 5.2957C134.706 5.2957 135.946 5.62724 137.014 6.29032C138.1 6.9534 138.942 7.84946 139.539 8.97849C140.154 10.0896 140.462 11.3172 140.462 12.6613C140.462 12.8584 140.453 13.0645 140.435 13.2796C140.417 13.4946 140.39 13.7186 140.353 13.9516H129.791C129.99 14.776 130.388 15.448 130.986 15.9677C131.601 16.4875 132.371 16.7473 133.294 16.7473C134.09 16.7473 134.778 16.5681 135.357 16.2097C135.955 15.8513 136.416 15.4032 136.742 14.8656L139.593 16.9892C139.032 17.8674 138.19 18.5842 137.068 19.1398C135.946 19.6953 134.688 19.9731 133.294 19.9731ZM133.239 8.41398C132.371 8.41398 131.628 8.67383 131.013 9.19355C130.397 9.71326 129.99 10.3943 129.791 11.2366H136.769C136.57 10.4659 136.154 9.80287 135.52 9.24731C134.905 8.69176 134.145 8.41398 133.239 8.41398Z" fill="#212529"/>
<path d="M142.071 19.6237V5.64516H145.628V8.30645C145.864 7.30287 146.343 6.54122 147.067 6.0215C147.792 5.48387 148.769 5.2509 150 5.32258V8.73656H149.484C148.434 8.73656 147.547 9.0681 146.823 9.73118C146.099 10.3943 145.737 11.3082 145.737 12.4731V19.6237H142.071Z" fill="#212529"/>
</g>
<defs>
<clipPath id="clip0_3_2">
<rect width="150" height="25" fill="white"/>
</clipPath>
</defs>
</svg>
